<?xml version="1.0" encoding="UTF-8"?>
<!DOCTYPE svg PUBLIC "-//W3C//DTD SVG 1.1//EN" "http://www.w3.org/Graphics/SVG/1.1/DTD/svg11.dtd">
<!-- Creator: CorelDRAW -->
<svg xmlns="http://www.w3.org/2000/svg" xml:space="preserve" width="210mm" height="297mm" style="shape-rendering:geometricPrecision; text-rendering:geometricPrecision; image-rendering:optimizeQuality; fill-rule:evenodd; clip-rule:evenodd"
viewBox="0 0 210 297"
 xmlns:xlink="http://www.w3.org/1999/xlink">
 <defs>
  <style type="text/css">
    .fil1 {fill:#CC9933}
    .fil0 {fill:#CC9933;fill-rule:nonzero}
  </style>
 </defs>
 <g id="Ebene_x0020_1">
  <metadata id="CorelCorpID_0Corel-Layer"/>
  <g id="_142361896">
   <g>
    <polygon id="_104062560" class="fil0" points="181.981,247.884 181.981,232.32 183.697,232.32 183.697,246.168 188.699,246.168 188.699,247.884 "/>
    <polygon id="_104062488" class="fil0" points="179.294,247.884 179.294,232.32 180.989,232.32 180.989,247.884 "/>
    <polygon id="_104062416" class="fil0" points="175.243,234.036 175.243,247.884 173.548,247.884 173.548,234.036 170.489,234.036 170.489,232.32 178.302,232.32 178.302,234.036 "/>
    <path id="_104062344" class="fil0" d="M169.497 242.923c0,0.6751 -0.1309,1.3124 -0.3927,1.9118 -0.2618,0.5994 -0.6167,1.1265 -1.0645,1.5812 -0.4478,0.4547 -0.9714,0.813 -1.5708,1.0748 -0.5994,0.2618 -1.2367,0.3927 -1.9119,0.3927l0 -1.7155c0.441,0 0.8578,-0.0861 1.2505,-0.2584 0.3927,-0.1722 0.7372,-0.4064 1.0334,-0.7027 0.2963,-0.2963 0.5305,-0.6408 0.7028,-1.0335 0.1722,-0.3927 0.2583,-0.8095 0.2583,-1.2504 0,-0.4272 -0.0723,-0.8371 -0.217,-1.2298 -0.1447,-0.3927 -0.3754,-0.7338 -0.6924,-1.0231 -0.3858,-0.3307 -0.7785,-0.658 -1.1781,-0.9818 -0.3996,-0.3238 -0.7614,-0.6614 -1.0851,-1.0128 -0.3238,-0.3514 -0.5891,-0.7407 -0.7958,-1.1678 -0.2067,-0.4271 -0.31,-0.9094 -0.31,-1.4468 0,-0.5098 0.0999,-0.9921 0.2997,-1.4468 0.1997,-0.4548 0.4719,-0.8509 0.8164,-1.1885 0.3445,-0.3376 0.7441,-0.6063 1.1988,-0.8061 0.4547,-0.1998 0.937,-0.2997 1.4468,-0.2997l0 1.7155c-0.5787,0 -1.0644,0.193 -1.4571,0.5788 -0.3927,0.3858 -0.5891,0.8681 -0.5891,1.4468 0,0.2618 0.0413,0.5201 0.124,0.7751 0.0827,0.2549 0.2205,0.465 0.4134,0.6304l2.2322 1.9015c0.4823,0.4271 0.8405,0.9508 1.0748,1.5708 0.2343,0.6201 0.3721,1.2815 0.4134,1.9843z"/>
    <path id="_104062248" class="fil0" d="M154.616 240.092c0,-0.7303 -0.131,-1.433 -0.3927,-2.1082 -0.2618,-0.6752 -0.6201,-1.2815 -1.0748,-1.8189 -0.4547,-0.5374 -0.9921,-0.9887 -1.6122,-1.3538 -0.6201,-0.3651 -1.2952,-0.6028 -2.0255,-0.7131l0 12.0087c0.7303,-0.1103 1.4054,-0.348 2.0255,-0.7131 0.6201,-0.3651 1.1575,-0.8164 1.6122,-1.3538 0.4547,-0.5374 0.813,-1.1437 1.0748,-1.8189 0.2617,-0.6751 0.3927,-1.3848 0.3927,-2.1289zm1.7155 0c0,1.0472 -0.2033,2.0428 -0.6097,2.9867 -0.4065,0.9438 -0.9542,1.7706 -1.6432,2.4802 -0.689,0.7097 -1.5019,1.2746 -2.4389,1.6949 -0.9371,0.4203 -1.9292,0.6304 -2.9764,0.6304l-0.8474 0 0 -15.5637 0.8474 0c1.0472,0 2.0393,0.2101 2.9764,0.6304 0.937,0.4203 1.7499,0.9852 2.4389,1.6949 0.689,0.7096 1.2367,1.5364 1.6432,2.4802 0.4064,0.9439 0.6097,1.9326 0.6097,2.966z"/>
    <path id="_104062176" class="fil0" d="M145.129 247.884l0 -11.8433c-0.5099,-0.5236 -1.0886,-0.9542 -1.7362,-1.2918 -0.6477,-0.3376 -1.3435,-0.5546 -2.0876,-0.6511l0 13.7862 -1.7155 0 0 -15.5637 0.8681 0c0.8405,0 1.6604,0.1309 2.4596,0.3927 0.7992,0.2618 1.5364,0.6338 2.2116,1.1161l0 -1.5088 1.6948 0 0 15.5637 -1.6948 0z"/>
    <path id="_104062104" class="fil0" d="M137.729 247.884c-1.0472,0 -2.0359,-0.2101 -2.966,-0.6304 -0.9301,-0.4203 -1.7396,-0.9852 -2.4286,-1.6949 -0.689,-0.7096 -1.2367,-1.5364 -1.6432,-2.4802 -0.4064,-0.9439 -0.6097,-1.9326 -0.6097,-2.966l0 -7.8335 1.6948 0 0 7.8335c0,0.7303 0.131,1.4331 0.3928,2.1082 0.2617,0.6752 0.62,1.2815 1.0747,1.8189 0.4548,0.5374 0.9921,0.9887 1.6122,1.3538 0.6201,0.3651 1.2952,0.6028 2.0256,0.7131l0 -13.8275 1.7155 0 0 15.605 -0.8681 0z"/>
    <polygon id="_104062008" class="fil0" points="116.171,246.168 121.628,246.168 121.628,247.884 113.464,247.884 120.181,234.036 114.849,234.036 114.849,232.32 122.889,232.32 "/>
    <path id="_104061936" class="fil0" d="M110.777 247.884l0 -11.8433c-0.5098,-0.5236 -1.0885,-0.9542 -1.7362,-1.2918 -0.6476,-0.3376 -1.3434,-0.5546 -2.0875,-0.6511l0 13.7862 -1.7155 0 0 -15.5637 0.8681 0c0.8405,0 1.6604,0.1309 2.4596,0.3927 0.7991,0.2618 1.5364,0.6338 2.2115,1.1161l0 -1.5088 1.6949 0 0 15.5637 -1.6949 0z"/>
    <path id="_104061864" class="fil0" d="M102.551 234.098c-0.7303,0.1103 -1.4055,0.348 -2.0255,0.7131 -0.6201,0.3651 -1.1575,0.8164 -1.6122,1.3538 -0.4547,0.5374 -0.813,1.1437 -1.0748,1.8189 -0.2618,0.6752 -0.3927,1.3779 -0.3927,2.1082l0 2.439 5.1052 0 0 -8.433zm0 13.7862l0 -3.6584 -5.1052 0 0 3.6584 -1.7155 0 0 -3.6584 -0.9921 0 0 -1.6948 0.9921 0 0 -2.439c0,-1.0472 0.2032,-2.0428 0.6097,-2.9866 0.4065,-0.9439 0.9577,-1.7706 1.6535,-2.4803 0.6958,-0.7097 1.5054,-1.2711 2.4286,-1.6845 0.9232,-0.4134 1.9085,-0.6201 2.9557,-0.6201l0.8681 0 0 15.5637 -1.6949 0z"/>
    <polygon id="_104061792" class="fil0" points="87.0282,247.884 87.0282,232.32 88.7437,232.32 88.7437,246.168 93.7456,246.168 93.7456,247.884 "/>
    <path id="_104061720" class="fil0" d="M85.168 247.884c-1.0472,0 -2.0325,-0.2067 -2.9557,-0.6201 -0.9232,-0.4133 -1.7328,-0.9748 -2.4286,-1.6845 -0.6958,-0.7096 -1.247,-1.5364 -1.6535,-2.4803 -0.4065,-0.9438 -0.6097,-1.9462 -0.6097,-3.0073 0,-1.0334 0.1963,-2.0152 0.589,-2.9453 0.3927,-0.9301 0.9336,-1.7465 1.6225,-2.4493 0.689,-0.7027 1.4951,-1.2677 2.4183,-1.6948 0.9232,-0.4271 1.9153,-0.6545 2.9763,-0.6821l0 1.7155c-0.813,0.0276 -1.5777,0.2033 -2.2942,0.5271 -0.7165,0.3238 -1.3435,0.7613 -1.8809,1.3125 -0.5374,0.5511 -0.9611,1.1884 -1.2711,1.9118 -0.3101,0.7235 -0.4651,1.4916 -0.4651,2.3046 0,0.7441 0.131,1.4538 0.3927,2.1289 0.2618,0.6752 0.6201,1.2815 1.0748,1.8189 0.4547,0.5374 0.9921,0.9887 1.6122,1.3538 0.6201,0.3651 1.2952,0.6028 2.0255,0.7131l0 -8.4329 -2.3562 0 0 -1.7156 4.0718 0 0 11.926 -0.8681 0z"/>
    <polygon id="_104061624" class="fil0" points="67.2687,234.036 67.2687,247.884 65.5738,247.884 65.5738,234.036 62.5149,234.036 62.5149,232.32 70.3277,232.32 70.3277,234.036 "/>
    <polygon id="_104146688" class="fil0" points="59.8279,247.884 59.8279,232.32 61.5227,232.32 61.5227,247.884 "/>
    <polygon id="_104146616" class="fil0" points="57.1409,247.884 57.1409,235.338 53.8752,237.901 50.6096,235.338 50.6096,247.884 48.9147,247.884 48.9147,231.865 53.8752,235.751 58.8358,231.865 58.8358,247.884 "/>
    <polygon id="_104146520" class="fil0" points="40.0271,247.884 40.0271,232.32 41.7219,232.32 41.7219,247.884 "/>
    <path id="_104146448" class="fil0" d="M33.5164 235.875c0.1929,-0.0965 0.3307,-0.224 0.4134,-0.3824 0.0826,-0.1584 0.124,-0.3273 0.124,-0.5064 0,-0.3858 -0.1791,-0.6752 -0.5374,-0.8681l0 1.7569zm3.8237 6.056c0,-0.5374 -0.0999,-1.0507 -0.2997,-1.5399 -0.1997,-0.4891 -0.4719,-0.9232 -0.8164,-1.3021 -0.3444,-0.379 -0.7475,-0.6924 -1.2091,-0.9405 -0.4617,-0.248 -0.9611,-0.3996 -1.4985,-0.4547l0 8.4536c0.5374,-0.0551 1.0403,-0.2033 1.5088,-0.4444 0.4685,-0.2411 0.8715,-0.5511 1.2091,-0.9301 0.3377,-0.3789 0.6064,-0.813 0.8061,-1.3021 0.1998,-0.4891 0.2997,-1.0025 0.2997,-1.5398zm1.6949 0.0413c0,0.8267 -0.1516,1.5984 -0.4547,2.3149 -0.3032,0.7165 -0.7235,1.3435 -1.2608,1.8809 -0.5374,0.5374 -1.1678,0.9577 -1.8912,1.2608 -0.7235,0.3031 -1.5055,0.4547 -2.346,0.4547l-1.2814 0 0 -15.5637 1.2814 0c0.3858,0 0.7407,0.0793 1.0645,0.2377 0.3238,0.1584 0.6063,0.3617 0.8474,0.6097 0.2411,0.2481 0.4271,0.534 0.5581,0.8578 0.1309,0.3238 0.1963,0.6511 0.1963,0.9818 0,0.2342 -0.031,0.4684 -0.093,0.7027 -0.062,0.2343 -0.1688,0.4685 -0.3204,0.7028 0.5788,0.2342 1.0989,0.5511 1.5605,0.9507 0.4617,0.3997 0.8509,0.844 1.1678,1.3332 0.317,0.4891 0.5581,1.0162 0.7235,1.5811 0.1653,0.565 0.248,1.1299 0.248,1.6949z"/>
    <path id="_104146376" class="fil0" d="M29.1139 234.098c-0.7303,0.1103 -1.4055,0.348 -2.0255,0.7131 -0.6201,0.3651 -1.1575,0.8164 -1.6122,1.3538 -0.4547,0.5374 -0.813,1.1437 -1.0748,1.8189 -0.2618,0.6752 -0.3927,1.3779 -0.3927,2.1082l0 2.439 5.1052 0 0 -8.433zm0 13.7862l0 -3.6584 -5.1052 0 0 3.6584 -1.7155 0 0 -3.6584 -0.9921 0 0 -1.6948 0.9921 0 0 -2.439c0,-1.0472 0.2032,-2.0428 0.6097,-2.9866 0.4065,-0.9439 0.9577,-1.7706 1.6535,-2.4803 0.6958,-0.7097 1.5054,-1.2711 2.4286,-1.6845 0.9232,-0.4134 1.9085,-0.6201 2.9557,-0.6201l0.8681 0 0 15.5637 -1.6949 0z"/>
   </g>
   <g>
    <path id="_104145368" class="fil1" d="M105.12 57.2439l13.9822 15.4287 -9.4009 31.2028 -8.8538 -0.2058 -9.572 -30.9282 13.8445 -15.4975zm-12.9491 15.5664l13.0868 -14.1888 13.0868 14.4643 -9.5736 30.5807 -7.3703 -0.4611 -9.2297 -30.3951z"/>
    <path id="_104145296" class="fil1" d="M105.12 53.8l16.2551 16.2552 -10.8599 33.2542 -10.4217 -0.2752 -11.5731 -32.7724 16.5996 -16.4618zm-5.8519 49.3374l11.8662 0.3783 12.9959 -35.5957 -18.9414 -18.8037 -18.9414 18.8726 13.0207 35.1485z"/>
    <path id="_104145152" class="fil1" d="M84.2501 82.7976l-17.7017 -2.1352 1.7909 17.6327 17.6151 9.9931 2.2906 0.8208 8.9541 -3.6506 -1.0374 -1.8073 -11.9116 -20.8535zm-20.2501 -4.6837l20.3189 1.8597 12.1637 23.4661 0.3703 1.3037 -10.3522 4.6273 -1.2457 -0.5883 -19.4642 -10.2118 -1.7908 -20.4567z"/>
    <polygon id="_104145080" class="fil1" points="97.1043,103.426 97.8236,104.582 99.3026,104.341 98.4522,103.157 81.1954,65.0482 "/>
    <polygon id="_104145008" class="fil1" points="111.605,103.677 111.253,104.346 112.356,105.175 112.868,104.014 128.892,65.3763 "/>
    <polygon id="_104144936" class="fil1" points="84.2468,109.547 84.8041,109.88 84.1495,110.666 83.3627,110.272 57.1345,97.7374 "/>
    <g>
     <path id="_142363984" class="fil1" d="M113.651 104.251l12.477 -21.5907 17.3572 -1.6531 -1.7908 17.3572 -19.4924 11.1582 -8.551 -5.2716zm-0.2897 -0.09l12.6978 -23.9115 20.1124 -1.7908 -1.5153 19.9746 -21.1471 11.004 -1.927 0.4986 -8.2208 -5.7749z"/>
     <path id="_142362568" class="fil1" d="M103.949 124.607l29.6864 0c-4.1595,-14.1398 -16.6242,-21.7601 -29.7544,-21.9007 -13.1302,-0.1406 -26.3656,8.8268 -29.6183,21.9007l29.6863 0zm13.8203 -0.9315l-5.4286 0 0 -15.347 5.4286 0 0 0.551 -4.8368 0 0 2.9184 3.7755 0 0 0.5714 -3.7755 0 0 10.7144 4.8368 0 0 0.5918zm-5.8164 0l-2.3469 0 0 -14.796 -0.9388 0 0 -0.551 3.2857 0 0 15.347zm-4.2653 0l-0.5715 0 0 -15.347 0.5715 0 0 15.347zm-1.0204 0l-2.3266 0 0 -14.796 -0.9388 0 0 -0.551 3.2654 0 0 15.347zm-4.8368 -7.6735c0,-1.9456 -0.6973,-3.6191 -2.0918,-5.0204 -1.3946,-1.4014 -3.0647,-2.1021 -5.0103,-2.1021l-0.8775 0 0 14.2042 0.8775 0c1.9592,0 3.6327,-0.6905 5.0205,-2.0715 1.3877,-1.3809 2.0816,-3.051 2.0816,-5.0102zm-1.6735 -5.4184c1.5102,1.5034 2.2653,3.3095 2.2653,5.4184 0,2.1089 -0.7551,3.915 -2.2653,5.4184 -1.5102,1.5034 -3.3197,2.2551 -5.4286,2.2551l-1.4694 0 0 -15.347 1.4694 0c2.1089,0 3.9184,0.7517 5.4286,2.2551zm-7.2653 13.0919l-2.3266 0 0 -14.796 -0.9592 0 0 -0.551 3.2858 0 0 15.347z"/>
     <path id="_142362496" class="fil1" d="M5.5935 117.62l0.0048 2.1777 84.9668 0.0009 0 -2.1792 -84.9716 0.0006zm87.2982 2.1786l0.3673 0 0 -2.1792 -0.3673 0 0 2.1792zm0.9592 0l6.8908 0.0001c0.4374,-0.6716 0.7429,-1.398 0.9167,-2.1794l-7.8075 0.0001 0 2.1792zm7.5745 0.0001l2.9153 0 0 -2.1794 -2.0784 0c-0.1596,0.7742 -0.4387,1.5007 -0.8369,2.1794zm5.2419 0.0001l0.4489 0 0 -2.1795 -0.4489 0 0 2.1795zm1.0204 0l1.9184 0 0 -2.1795 -1.9184 0 0 2.1795zm4.2653 0l0.3878 0 0 -2.1795 -0.3878 0 0 2.1795zm0.9796 0l91.4739 0.001 -0.0015 -2.1811 -91.4724 0.0006 0 2.1795z"/>
    </g>
    <polygon id="_104144720" class="fil1" points="124.568,110.2 124.051,110.735 124.93,111.494 125.262,110.936 151.48,98.3221 "/>
    <path id="_104283376" class="fil1" d="M127.548 113.169l3.732 5.6138 5.8107 0.2395 0.8441 -1.4036 5.5119 -3.4482 -9.7839 0.2245 4.5303 -4.7483 -10.6451 3.5223zm-2.0536 -2.0161l-1.2019 0.842 3.8412 6.0951 13.1082 0.7252 1.1541 -1.1397 11.3881 -5.9396 -15.1337 0.7567 9.4929 -8.5643 -22.6489 7.2246z"/>
    <path id="_104283304" class="fil1" d="M76.1313 114.395l-4.207 -4.5508 8.9219 2.8308 2.222 1.1934 -2.5452 5.1936 -7.842 -0.3439 -0.6191 -1.099 -5.6408 -3.4068 9.7102 0.1827zm6.7177 -3.764l2.1876 3.9539 -4.8503 4.5112 -11.6857 -0.2119 -1.0507 -1.1914 -11.2441 -5.9913 15.1338 0.8943 -9.5962 -8.5643 21.1056 6.5995z"/>
   </g>
   <g>
    <path id="_104282728" class="fil0" d="M196.333 160.904l-1.1796 0 0 -31.6794c2.8084,0 4.8867,0.983 6.2348,2.9489l0 -2.9489 1.1796 0 0 31.6794 -1.1796 0 0 -24.897c0,-1.4323 -0.4845,-2.6891 -1.4534,-3.7703 -0.9689,-1.0812 -2.1695,-1.6921 -3.6018,-1.8326l0 30.4999z"/>
    <polygon id="_104282656" class="fil0" points="189.424,130.362 187.486,130.362 187.486,129.225 194.226,129.225 194.226,160.904 189.424,160.904 "/>
    <polygon id="_104282584" class="fil0" points="185.464,160.904 174.258,160.904 174.258,129.225 185.464,129.225 185.464,130.362 175.48,130.362 175.48,136.386 183.274,136.386 183.274,137.566 175.48,137.566 175.48,159.682 185.464,159.682 "/>
    <polygon id="_104282512" class="fil0" points="173.458,160.904 168.613,160.904 168.613,130.362 166.676,130.362 166.676,129.225 173.458,129.225 "/>
    <path id="_104282440" class="fil0" d="M158.419 160.904l-1.1795 0 0 -31.6794c2.8084,0 4.8867,0.983 6.2347,2.9489l0 -2.9489 1.1796 0 0 31.6794 -1.1796 0 0 -24.897c0,-1.4323 -0.4844,-2.6891 -1.4533,-3.7703 -0.9689,-1.0812 -2.1696,-1.6921 -3.6019,-1.8326l0 30.4999z"/>
    <polygon id="_104282368" class="fil0" points="151.51,130.362 149.572,130.362 149.572,129.225 156.312,129.225 156.312,160.904 151.51,160.904 "/>
    <polygon id="_104282296" class="fil0" points="147.55,160.904 136.344,160.904 136.344,129.225 147.55,129.225 147.55,130.362 137.566,130.362 137.566,136.386 145.359,136.386 145.359,137.566 137.566,137.566 137.566,159.682 147.55,159.682 "/>
    <polygon id="_104282224" class="fil0" points="135.544,160.904 130.699,160.904 130.699,130.362 128.761,130.362 128.761,129.225 135.544,129.225 "/>
    <path id="_104282152" class="fil0" d="M125.518 145.064c0,-4.0162 -1.4393,-7.4706 -4.318,-10.3632 -2.8788,-2.8927 -6.326,-4.3391 -10.3422,-4.3391l-1.8114 0 0 29.3203 1.8114 0c4.0442,0 7.4986,-1.4254 10.3632,-4.2759 2.8646,-2.8505 4.297,-6.2979 4.297,-10.3421zm-3.4544 -11.1847c3.1173,3.1033 4.676,6.8315 4.676,11.1847 0,4.3531 -1.5587,8.0814 -4.676,11.1847 -3.1174,3.1032 -6.8526,4.655 -11.2058,4.655l-3.0331 0 0 -31.6794 3.0331 0c4.3532,0 8.0884,1.5517 11.2058,4.655z"/>
    <polygon id="_104282080" class="fil0" points="107.066,160.904 102.264,160.904 102.264,130.362 100.284,130.362 100.284,129.225 107.066,129.225 "/>
    <polygon id="_104282008" class="fil0" points="98.2616,160.904 87.2244,160.904 87.2244,129.225 88.3618,129.225 88.3618,159.682 98.2616,159.682 "/>
    <polygon id="_104281936" class="fil0" points="86.2976,160.904 81.4951,160.904 81.4951,130.362 79.5573,130.362 79.5573,129.225 86.2976,129.225 "/>
    <path id="_104281864" class="fil0" d="M49.7315 157.197c-3.5667,-3.3982 -5.3501,-7.4423 -5.3501,-12.1325 0,-4.7745 1.7834,-8.8186 5.3501,-12.1326l0 24.2651z"/>
    <path id="_104281792" class="fil0" d="M71.6796 155.786c2.9488,-2.9348 4.4233,-6.5086 4.4233,-10.7213 0,-4.2127 -1.4745,-7.7865 -4.4233,-10.7213 -2.9489,-2.9348 -6.5297,-4.4023 -10.7424,-4.4023 -3.4264,0 -6.5016,1.0532 -9.2258,3.1596l0 23.8859c2.7524,2.1343 5.8276,3.2016 9.2258,3.2016 4.2127,0 7.7935,-1.4675 10.7424,-4.4022zm5.8556 -10.7213c0,4.5777 -1.6149,8.4744 -4.8446,11.6902 -3.2297,3.2157 -7.1475,4.8235 -11.7534,4.8235 -3.9319,0 -7.4143,-1.2358 -10.4474,-3.7072l0 -25.6131c3.0051,-2.4996 6.4875,-3.7493 10.4474,-3.7493 4.6059,0 8.5237,1.6078 11.7534,4.8235 3.2297,3.2158 4.8446,7.1265 4.8446,11.7324z"/>
    <path id="_104281720" class="fil0" d="M14.5134 156.902c-1.5728,-1.5165 -2.8084,-3.2928 -3.7071,-5.329 -0.8988,-2.0362 -1.3481,-4.1354 -1.3481,-6.298 0,-4.8025 1.6851,-8.8186 5.0552,-12.0483l0 23.6753z"/>
    <path id="_104281648" class="fil0" d="M25.8877 161.452c-4.0162,0 -7.5407,-1.2779 -10.5739,-3.8335l0 -25.1076c1.3761,-1.1515 2.97,-2.0853 4.7814,-2.8015 1.8115,-0.7161 3.5878,-1.0742 5.3291,-1.0742 4.4654,0 8.2288,1.3481 11.29,4.0442l-0.7583 0.9268c-2.8366,-2.5276 -6.2068,-3.7914 -10.1104,-3.7914 -3.3422,0 -6.4596,1.0812 -9.3522,3.2437l0 24.0123c2.8366,2.1626 5.982,3.2438 9.4364,3.2438 3.9599,0 7.4284,-1.3832 10.4053,-4.1495 2.9769,-2.7663 4.5778,-6.1295 4.8025,-10.0894l-10.5738 0 0 -1.1374 11.7955 0c0,4.6059 -1.6149,8.5096 -4.8446,11.7113 -3.2297,3.2016 -7.1054,4.8024 -11.627,4.8024z"/>
   </g>
   <g>
    <path id="_104146256" class="fil1" d="M5.7126 178.017l-0.0043 2.1712 71.7314 0.0015c-0.402,-0.7146 -0.2767,-1.44 -0.6245,-2.1727l-71.1026 0zm124.577 2.1739l74.0911 0.0016 0 -2.1755 -72.4669 0.0008c-0.0112,0.0321 0.2169,0.0631 0.2021,0.0942 -0.34,0.7124 -1.4543,1.4052 -1.8263,2.0789z"/>
    <path id="_104146184" class="fil1" d="M79.6437 177.592l-4.3092 -0.2049c4.6004,10.1759 13.8007,18.2435 28.837,18.0159 15.0363,-0.2276 23.9503,-8.6548 27.983,-17.3861l-0.8185 0.0029c-5.8125,6.9696 -11.6023,15.563 -26.2317,14.5407 -13.9024,-0.9714 -21.864,-7.2269 -25.4606,-14.9685z"/>
    <path id="_104146112" class="fil1" d="M126.872 185.839l8.7503 -1.6922 5.7188 5.6806 -6.3561 4.3684 -12.4468 -4.4729 -0.4983 -0.9224 3.3608 -2.5858 1.4713 -0.3757zm0.3878 -0.3548l8.8965 -1.9244 6.735 6.423 -7.5505 5.2089 -13.1145 -5.2486 -0.3495 -0.9963c0,0 3.7896,-3.4014 3.8756,-3.4014 0.0861,0 1.5074,-0.0612 1.5074,-0.0612z"/>
    <path id="_104146040" class="fil1" d="M118.926 191.924l8.5829 4.8441 0.9525 11.2181 -11.3847 -1.135 -6.8207 -12.0273 0.1137 -0.4581 6.8446 -2.6828 1.7117 0.241zm10.9112 17.4724l-12.8637 -1.1351 -7.0565 -13.3776 0.4527 -1.6185 8.2451 -2.3272 0.8173 0.7199 9.3858 5.0411 1.0193 12.6974z"/>
    <path id="_104145968" class="fil1" d="M85.0361 189.724l-12.1756 4.5666 -6.5519 -4.4806 5.581 -5.5079 8.8312 1.474 0.8319 0.0282 3.6402 3.0587 -0.1568 0.861zm-4.6064 -4.2793l-9.2119 -1.8505 -6.425 6.4403 7.5791 5.1108 13.0442 -5.1453 0.8908 -1.6231 -3.4967 -3.7467 -2.3805 0.8145z"/>
    <polygon id="_104145896" class="fil1" points="86.2644,190.582 73.9565,196.544 86.7472,190.893 87.3748,189.965 "/>
    <polygon id="_104145824" class="fil1" points="97.888,194.981 98.4763,194.368 98.5293,195.075 88.4948,217.514 "/>
    <polygon id="_104145752" class="fil1" points="108.544,195.091 108.682,194.04 109.371,194.904 118.797,217.892 "/>
    <polygon id="_104145680" class="fil1" points="121.164,190.647 134.21,196.889 120.785,190.883 120.602,190.535 "/>
    <path id="_104145608" class="fil1" d="M88.2547 191.776l-8.4761 4.8199 -0.8456 11.15 11.1095 -0.9974 6.6796 -11.9712 -0.2133 -0.9957 -5.7096 -2.6828 -2.5445 0.6772zm-0.4595 -0.2557l-9.4808 4.9893 -0.9292 12.7497 12.7605 -0.9287 7.1146 -13.4538 0.3147 -1.0264 -4.7465 -2.6484 -5.0333 0.3183z"/>
    <path id="_104145536" class="fil1" d="M107.485 195.213l6.6748 19.4601 -10.6344 10.4416 -10.5936 -10.456 6.6685 -19.4544 1.4168 -1.1816 5.9254 0.3971 0.5425 0.7932zm-8.2765 -0.1199l0.9474 -1.4676 7.6651 -0.2417 0.0508 1.788 7.5542 20.6907 -11.9006 12.0382 -12.107 -11.935 7.7901 -20.8726z"/>
    <path id="_104145464" class="fil1" d="M100.394 195.279l2.0164 -1.1629 4.0667 0.2173 0.1356 0.9572 5.3047 17.442 -8.4612 9.2866 -8.4267 -9.321 5.3645 -17.4192zm6.7203 -0.0306l-0.31 -0.4488 -6.1838 -0.3453 -0.6912 0.7831 -5.372 17.45 8.9742 9.9627 8.8192 -9.7037 -5.2364 -17.698z"/>
    <g>
     <path id="_104281552" class="fil0" d="M106.931 185.483c-2.2844,-2.1764 -3.4266,-4.7666 -3.4266,-7.7705 0,-3.0579 1.1422,-5.6481 3.4266,-7.7705l0 15.541z"/>
     <path id="_104281480" class="fil0" d="M120.988 184.579c1.8887,-1.8797 2.833,-4.1686 2.833,-6.8667 0,-2.6981 -0.9443,-4.987 -2.833,-6.8667 -1.8887,-1.8796 -4.1821,-2.8195 -6.8802,-2.8195 -2.1945,0 -4.1641,0.6745 -5.9088,2.0236l0 15.2982c1.7628,1.367 3.7324,2.0506 5.9088,2.0506 2.6981,0 4.9915,-0.9399 6.8802,-2.8195zm3.7503 -6.8667c0,2.9319 -1.0343,5.4277 -3.1028,7.4872 -2.0685,2.0596 -4.5777,3.0894 -7.5277,3.0894 -2.5182,0 -4.7486,-0.7915 -6.6913,-2.3744l0 -16.4044c1.9247,-1.6009 4.1551,-2.4013 6.6913,-2.4013 2.95,0 5.4592,1.0297 7.5277,3.0893 2.0685,2.0596 3.1028,4.5642 3.1028,7.5142z"/>
     <path id="_104281408" class="fil0" d="M102.128 176.417c-0.1258,1.0972 -0.5306,2.1764 -1.2141,3.2377l-4.8026 7.4468 5.9088 0 0 0.7555 -7.2849 0 7.3928 -11.44z"/>
     <path id="_103102000" class="fil0" d="M102.209 175.284l-8.1213 12.5732 -3.6694 0 10.2258 -15.9188c-0.6296,-1.2591 -1.52,-2.235 -2.6711,-2.9275 -1.1512,-0.6925 -2.4463,-1.0388 -3.8853,-1.0388 -2.0326,0 -3.7548,0.706 -5.1669,2.1181 -1.412,1.412 -2.118,3.1342 -2.118,5.1668 0,1.3131 0.3282,2.5318 0.9848,3.656 0.6566,1.1241 1.5514,2.0191 2.6846,2.6846l-0.4047 0.6745c-1.3311,-0.7555 -2.3338,-1.7763 -3.0084,-3.0623 -0.6745,-1.2861 -1.0118,-2.7207 -1.0118,-4.3035 0,-0.6296 0.1349,-1.367 0.4048,-2.2125 0.5396,-1.7088 1.5379,-3.0533 2.9948,-4.0336 1.457,-0.9804 3.1029,-1.4705 4.9376,-1.4705 2.1405,0 3.9707,0.8094 5.4906,2.4283 1.52,1.6189 2.2979,3.5075 2.3339,5.666z"/>
     <g>
      <path id="_33195144" class="fil0" d="M136.709 170.244c0.8148,-0.857 1.2221,-1.8742 1.2221,-3.0514 0,-1.1774 -0.4073,-2.1946 -1.2221,-3.0517 -0.8146,-0.8571 -1.8106,-1.3092 -2.9878,-1.3562l0 8.8156c1.1772,-0.0471 2.1732,-0.4991 2.9878,-1.3563zm1.6318 -3.0514c0,0.7629 -0.1719,1.4834 -0.5156,2.1615 -0.3438,0.678 -0.8265,1.2478 -1.4481,1.7094l1.1726 1.9496 -0.4662 0 -1.0314 -1.7235c-0.7252,0.4332 -1.5021,0.6733 -2.3309,0.7205l0 1.003 -0.3957 0 0 -10.6241 0.1978 0c1.328,0 2.4629,0.4686 3.4048,1.4057 0.9418,0.9373 1.4127,2.0698 1.4127,3.3979z"/>
      <polygon id="_33195072" class="fil0" points="133.029,173.013 131.362,173.013 131.362,162.771 130.74,162.771 130.74,162.389 133.029,162.389 "/>
      <polygon id="_33194904" class="fil0" points="130.062,173.013 126.304,173.013 126.304,162.389 130.062,162.389 130.062,162.771 126.714,162.771 126.714,164.791 129.328,164.791 129.328,165.186 126.714,165.186 126.714,172.604 130.062,172.604 "/>
      <polygon id="_33194832" class="fil0" points="126.036,173.013 124.411,173.013 124.411,162.771 123.761,162.771 123.761,162.389 126.036,162.389 "/>
     </g>
    </g>
   </g>
  </g>
 </g>
</svg>
