<?xml version="1.0" encoding="utf-8"?>
<!-- Generator: Adobe Illustrator 28.0.0, SVG Export Plug-In . SVG Version: 6.00 Build 0)  -->
<svg version="1.1" id="Layer_1" xmlns="http://www.w3.org/2000/svg" xmlns:xlink="http://www.w3.org/1999/xlink" x="0px" y="0px"
	 viewBox="0 0 595.3 450" style="enable-background:new 0 0 595.3 450;" xml:space="preserve">
<style type="text/css">
	.st0{fill:#CC9933;}
</style>
<g id="Ebene_x0020_1">
	<g id="_142361896">
		<g>
			<polygon id="_104146520" class="st0" points="503.5,416.7 503.5,40.4 544.4,40.4 544.4,416.7 			"/>
			<path id="_104146448" class="st0" d="M346.1,126.4c4.7-2.3,8-5.4,10-9.2c2-3.8,3-7.9,3-12.2c0-9.3-4.3-16.3-13-21V126.4z
				 M438.5,272.8c0-13-2.4-25.4-7.2-37.2c-4.8-11.8-11.4-22.3-19.7-31.5c-8.3-9.2-18.1-16.7-29.2-22.7c-11.2-6-23.2-9.7-36.2-11
				v204.3c13-1.3,25.1-4.9,36.5-10.7c11.3-5.8,21.1-13.3,29.2-22.5c8.2-9.2,14.7-19.7,19.5-31.5
				C436.1,298.2,438.5,285.7,438.5,272.8L438.5,272.8z M479.5,273.8c0,20-3.7,38.6-11,56c-7.3,17.3-17.5,32.5-30.5,45.5
				c-13,13-28.2,23.1-45.7,30.5c-17.5,7.3-36.4,11-56.7,11h-31V40.4h31c9.3,0,17.9,1.9,25.7,5.7c7.8,3.8,14.7,8.7,20.5,14.7
				c5.8,6,10.3,12.9,13.5,20.7c3.2,7.8,4.7,15.7,4.7,23.7c0,5.7-0.7,11.3-2.2,17c-1.5,5.7-4.1,11.3-7.7,17c14,5.7,26.6,13.3,37.7,23
				c11.2,9.7,20.6,20.4,28.2,32.2c7.7,11.8,13.5,24.6,17.5,38.2C477.5,246.4,479.5,260.1,479.5,273.8L479.5,273.8z"/>
			<path id="_104146376" class="st0" d="M239.7,83.4c-17.7,2.7-34,8.4-49,17.2c-15,8.8-28,19.7-39,32.7c-11,13-19.7,27.6-26,44
				c-6.3,16.3-9.5,33.3-9.5,51v59h123.4V83.4z M239.7,416.7v-88.4H116.3v88.4H74.8v-88.4h-24v-41h24v-59c0-25.3,4.9-49.4,14.7-72.2
				c9.8-22.8,23.1-42.8,40-60c16.8-17.2,36.4-30.7,58.7-40.7c22.3-10,46.1-15,71.4-15h21v376.2L239.7,416.7L239.7,416.7z"/>
		</g>
	</g>
</g>
</svg>
